<?xml version="1.0" encoding="UTF-8" standalone="no"?><!-- Generator: Gravit.io --><svg xmlns="http://www.w3.org/2000/svg" xmlns:xlink="http://www.w3.org/1999/xlink" style="isolation:isolate" viewBox="0 0 2200 400" width="2200pt" height="400pt"><defs><clipPath id="_clipPath_ymD0DR36IIHY6Zf5AEWWE8Xsn4NmOfuH"><rect width="2200" height="400"/></clipPath></defs><g clip-path="url(#_clipPath_ymD0DR36IIHY6Zf5AEWWE8Xsn4NmOfuH)"><g><path d=" M 199.947 182.61 L 200.498 183.161 L 312.22 71.438 L 282.522 41.739 L 199.947 124.314 L 117.373 41.739 L 87.674 71.438 L 199.397 183.161 L 199.947 182.61 Z " fill-rule="evenodd" fill="rgb(42,57,77)"/><path d=" M 217.468 200.131 L 216.918 200.681 L 328.641 312.404 L 358.339 282.706 L 275.765 200.131 L 358.339 117.556 L 328.641 87.858 L 216.918 199.581 L 217.468 200.131 Z " fill-rule="evenodd" fill="rgb(42,57,77)"/><path d=" M 182.532 200.026 L 183.082 199.476 L 71.359 87.753 L 41.661 117.451 L 124.235 200.026 L 41.661 282.6 L 71.359 312.299 L 183.082 200.576 L 182.532 200.026 Z " fill-rule="evenodd" fill="rgb(224,0,153)"/><path d=" M 200.21 217.39 L 199.659 216.839 L 87.936 328.562 L 117.635 358.261 L 200.21 275.686 L 282.784 358.261 L 312.483 328.562 L 200.76 216.839 L 200.21 217.39 Z " fill-rule="evenodd" fill="rgb(42,57,77)"/></g><g><g opacity="0.2"><path d=" M 3850.151 204.109 C 3850.151 127.453 3912.386 65.218 3989.042 65.218 C 4065.698 65.218 4127.933 127.453 4127.933 204.109 C 4127.933 280.765 4065.698 343 3989.042 343 C 3912.386 343 3850.151 280.765 3850.151 204.109 L 3850.151 204.109 Z " fill="rgb(0,0,0)"/></g><path d=" M 3872.067 195.891 C 3872.067 119.235 3934.302 57 4010.958 57 C 4087.614 57 4149.849 119.235 4149.849 195.891 C 4149.849 272.547 4087.614 334.782 4010.958 334.782 C 3934.302 334.782 3872.067 272.547 3872.067 195.891 L 3872.067 195.891 Z " fill="rgb(233,211,239)"/><path d=" M 3872.067 195.891 C 3872.067 119.235 3934.302 57 4010.958 57 C 4087.614 57 4149.849 119.235 4149.849 195.891 C 4149.849 272.547 4087.614 334.782 4010.958 334.782 C 3934.302 334.782 3872.067 272.547 3872.067 195.891 L 3872.067 195.891 Z " fill="rgb(233,211,239)"/><path d=" M 4055.474 129.733 L 4039.311 115.899 C 4039.311 115.899 3906.173 146.032 3875.765 227.942 C 3887.956 279.444 3928.774 319.851 3980.55 331.357 C 4033.422 281.499 4055.474 129.733 4055.474 129.733 Z " fill="rgb(252,164,30)"/><path d=" M 4037.668 99.325 L 4058.488 95.215 C 4058.488 95.215 4060.816 79.053 4054.515 64.122 C 4040.818 59.603 4026.162 57.137 4010.958 57.137 C 3986.303 57.137 3963.017 63.575 3943.019 74.944 C 3996.85 64.397 4037.668 99.325 4037.668 99.325 L 4037.668 99.325 Z " fill="rgb(109,87,106)"/><path d=" M 4125.194 116.994 C 4099.306 105.626 4076.842 111.378 4076.842 111.378 L 4072.87 127.541 C 4072.87 127.541 4147.52 193.699 4129.166 269.034 C 4142.315 247.804 4149.849 222.738 4149.849 196.028 C 4149.849 166.579 4140.671 139.458 4125.194 116.994 Z " fill="rgb(133,190,237)"/><path d=" M 4034.126 99.025 C 4039.551 89.413 4054.325 87.461 4067.098 94.67 C 4079.87 101.878 4085.836 115.534 4080.411 125.147 C 4074.986 134.759 4060.212 136.71 4047.44 129.502 C 4034.667 122.294 4028.702 108.638 4034.126 99.025 L 4034.126 99.025 Z " fill="rgb(245,234,249)"/><g opacity="0.2"><path d=" M 4033.153 100.635 C 4038.652 90.891 4053.486 88.833 4066.259 96.041 C 4079.032 103.25 4084.936 117.013 4079.437 126.757 C 4073.938 136.501 4059.104 138.559 4046.331 131.351 C 4033.559 124.143 4027.654 110.379 4033.153 100.635 L 4033.153 100.635 Z " fill="rgb(0,0,0)"/></g><path d=" M 4033.727 99.706 C 4038.929 90.489 4053.522 88.858 4066.295 96.066 C 4079.067 103.275 4085.213 116.61 4080.012 125.827 C 4074.81 135.045 4060.217 136.676 4047.444 129.467 C 4034.672 122.259 4028.525 108.924 4033.727 99.706 L 4033.727 99.706 Z " fill="rgb(240,220,247)"/><path d=" M 4040.329 102.526 C 4044.305 95.481 4055.124 94.046 4064.472 99.322 C 4073.821 104.598 4078.184 114.601 4074.208 121.646 C 4070.232 128.69 4059.414 130.126 4050.065 124.85 C 4040.717 119.574 4036.354 109.571 4040.329 102.526 L 4040.329 102.526 Z " fill="rgb(204,188,211)"/><path d=" M 4041.761 103.334 C 4045.403 96.882 4055.308 95.565 4063.867 100.396 C 4072.425 105.226 4076.418 114.386 4072.776 120.838 C 4069.135 127.29 4059.23 128.607 4050.671 123.776 C 4042.112 118.946 4038.12 109.786 4041.761 103.334 L 4041.761 103.334 Z " fill="rgb(245,234,249)"/><path d=" M 4041.504 103.735 C 4044.996 97.547 4054.781 96.444 4063.34 101.274 C 4071.899 106.104 4076.012 115.05 4072.519 121.239 C 4069.026 127.428 4059.242 128.531 4050.683 123.701 C 4042.124 118.87 4038.011 109.924 4041.504 103.735 L 4041.504 103.735 Z " fill="rgb(240,220,247)"/><g opacity="0.2"><path d=" M 3983.7 316.016 C 3925.213 298.484 3905.626 267.939 3890.695 224.107 C 3873.848 174.66 3886.86 141.787 3899.325 113.433 C 3882.203 136.444 3872.067 165.072 3872.067 195.891 C 3872.067 272.596 3934.253 334.782 4010.958 334.782 C 4045.338 334.782 4076.705 322.317 4100.949 301.634 C 4059.994 317.386 4023.559 327.933 3983.7 316.016 L 3983.7 316.016 Z " fill="rgb(0,0,0)"/></g><g opacity="0.2"><path d=" M 3965.62 78.231 C 3965.62 78.231 3996.85 68.78 4034.243 74.122 C 4085.745 81.518 4125.741 122.199 4133.823 173.564 C 4136.699 191.782 4136.973 213.423 4131.631 237.668 C 4131.631 237.668 4147.383 206.985 4138.48 161.373 C 4129.988 118.227 4098.21 83.162 4055.611 72.067 C 4031.641 65.766 4001.233 64.808 3965.62 78.231 L 3965.62 78.231 Z " fill="rgb(255,255,255)"/></g><g opacity="0.5"><path d=" M 4058.488 80.148 C 4058.488 80.148 4090.265 92.613 4103.963 110.831 L 4117.934 114.118 C 4117.934 114.118 4098.758 81.518 4055.885 71.93 L 4058.488 80.148 L 4058.488 80.148 Z " fill="rgb(255,255,255)"/></g></g><text transform="matrix(1,0,0,1,394,352)" style="font-family:'Khand';font-weight:500;font-size:436px;font-style:normal;fill:#2a394d;stroke:none;">RESTQDATA</text></g></svg>